<svg width="190" height="44" fill="none" xmlns="http://www.w3.org/2000/svg">
  <path d="M87.7 20.86V17h15.22v3.87h-5.27V34.7h-4.69V20.86H87.7zM109.5 27.23v7.47h-4.72V17h4.55v6.95h.14c.3-.85.8-1.5 1.48-1.98.7-.48 1.52-.72 2.5-.72a4.3 4.3 0 014.02 2.4c.38.76.56 1.62.56 2.59v8.47h-4.72v-7.47c0-.66-.16-1.18-.5-1.55-.32-.37-.78-.56-1.39-.56a1.8 1.8 0 00-1.38.56c-.35.38-.53.9-.53 1.55zM126.66 34.94c-2.1 0-3.76-.6-4.97-1.8-1.2-1.22-1.8-2.9-1.8-5.05 0-1.37.27-2.57.81-3.6a5.9 5.9 0 012.32-2.39 7 7 0 013.54-.86c1.32 0 2.47.28 3.44.83a5.63 5.63 0 012.28 2.35c.54 1.01.81 2.23.81 3.64v1.1h-8.55v.21c0 .64.2 1.17.58 1.6.4.41.94.62 1.64.62.49 0 .9-.1 1.27-.3.36-.21.61-.5.75-.88h4.31a4.9 4.9 0 01-2.02 3.3 7.3 7.3 0 01-4.41 1.23zm-2.12-8.4h4.2a1.84 1.84 0 00-.6-1.4c-.4-.36-.9-.54-1.48-.54s-1.07.18-1.49.54c-.41.35-.62.82-.63 1.4zM150.16 16.99h4.72v11.7c0 1.34-.31 2.48-.94 3.4a5.8 5.8 0 01-2.63 2.1c-1.13.48-2.46.72-4 .72a10.4 10.4 0 01-4-.71 5.8 5.8 0 01-2.63-2.1 6.04 6.04 0 01-.93-3.42v-11.7h4.76v11.5c0 .65.25 1.18.75 1.6.5.4 1.19.6 2.06.6.89 0 1.58-.2 2.09-.6.5-.42.75-.95.75-1.6v-11.5zM166.59 22.52a1.88 1.88 0 00-.64-1.35c-.38-.32-.95-.48-1.72-.48-.74 0-1.27.13-1.61.38-.34.25-.5.58-.51.97-.03.42.15.76.53 1.03.4.26 1 .49 1.83.66l1.44.32c1.93.42 3.32 1.1 4.18 2.02a4.86 4.86 0 011.3 3.4c-.01 1.75-.65 3.1-1.9 4.04-1.27.93-3 1.4-5.23 1.4-1.52 0-2.85-.23-3.98-.68a5.58 5.58 0 01-2.64-2.1 6.61 6.61 0 01-.94-3.66h4.52c.04.82.31 1.44.83 1.86.51.42 1.23.63 2.14.63.77 0 1.34-.13 1.73-.41.4-.28.6-.63.6-1.07 0-.4-.2-.74-.59-1a6.09 6.09 0 00-2.04-.73l-1.75-.38a8 8 0 01-3.67-1.7 4.16 4.16 0 01-1.33-3.29c0-1.12.3-2.1.9-2.94.6-.85 1.43-1.51 2.5-1.98 1.07-.48 2.3-.71 3.69-.71 1.41 0 2.64.24 3.67.71a5.5 5.5 0 012.39 2.03c.56.86.85 1.87.85 3.03h-4.55zM177.06 34.7h-5.13L177.7 17h6.5L190 34.7h-5.13l-1.01-3.39h-5.79l-1 3.4zm2.09-6.99h3.63l-1.75-5.84h-.13l-1.75 5.84zM72.86 5.47v.44l-1.32 1.17-.65-.03-.49.27.13.52v.38l-1.14.55-.2.76v1.45l.9 1.06-.11.44-.95.37v.59l-.68.36-.44.23h-.74L66 15.2l.18.17.2 1.32-.76 1.71-.3-.04-.06-.49-.73-.04.5.86.59.68-.25 1-.4.65h-.4l.06-.73-.34-.53-.5-.26-.06-.66.16-.83-.24-.16-.57.57.2.42.05.92.36.18.38.7.08.38.05.23-.15.51.58.04.45.2-.11.55.38.24-.02.22-.38.35.67.5v.67l-.52.3.32.55-.23.55-1.77.28v.68l-.52.97-.83.18-.13.21-.48.8.03.44-1.08 1.12h-.45l-.36.76-.59.31v.18l-.15 2.28.42.55.19.77.02.02.45.37v.6l1.07.9.12 1 .4.75.79 1.43v2.18h-1.67v-.03c-.06-.16-.47-.5-.47-.5l-.62.04v-.74h-.43l-.18-.29v-.41l-.36-.03-.72-.81.1-.46-.37.04-.18-.33.03-.1.15-.66-.11-1.15-.38-.13-1.15-1.23-.96-.06-1.15.65-.45.11-.7-1-1.85-.14-.28-.02-.02.02-.58.42-.32-.35-.4.34-1.66.01v.7l-.32.42.86.86-.47.28-1.15-.53-.6.7h-1.04l-.29-.98-1.2-.33v.5l-.24.16-1.64-.42h-.7l-2.22.97v.44l-.9.59-.98.2-.36.52-.5.05-.26.61-.34.1.02 1.27c-.06.2-.05.46-.01.7.08.55.33 1.07.33 1.07l-.3.22-1.2-.35a2.45 2.45 0 01-1.96-1.73c-.09-.6-.22-.82-.22-.82-.75-.41-1.3-1.95-1.3-1.95l-.03-.05a5.17 5.17 0 00-1.3-1.88h-.74l-.23-.24-1.26-.05v.86l-.78.6c-1.17-.3-2-1.71-2-1.71l.05-.78-2.56-3.03-2.39-.17-.2.9-4.24-.5-4.87-2.88v-.77H6.63l-.12-1.2-.04-.51-.59-.22v-.66h-.54l-.08-.47-.45-.12-.86-1.03-1.12-.14-.38-.3.05-.15.17-.5-.13-.23-.12-.29.16-.4-.72-1.73-.2-.17v-.27l.32-.32v-.33l-.52-.6.04-1.3-.47-.5.05-.7-.53-.78.05-1.04.16-.66-.76-.84.43-.57.78-1.25-.09-.62.23-.4.09-1.57 1.44-2.55v-.57l.24-.35.2-.29.45-1.4v-.4l.4-.46-.24-.44.03-.71.37-.36L3.98 2 4 1.47l-.22-.1V1L4 .42h.31l.2.53.75.29.78.13v.53l-.33.46-.45.15.09.7H6l.45-.52v-.62l.18-.22-.36-.46.26-.44.1-.24-.2-.2.2-.51L9.4.84l3.44.9 1.17.25.15.03 5.86.93.13.01 1.43.17 7.27.86 6.33.27 2.96-.2V3.5l.61.35v.72l1.26.44.36-.4.94.31.27.44.92.31.72-.22 1.57.24.38-.6.47-.04.63-.65-.04-.25.18-.32 1.7.06.32.2.65 1.2.65.03.13-.35.57.33.04.57.36.24.02.46v.18l.38.02v.46l.43.3.18.4 1.53-.08 2.3-.05.91.88.72 1.05-.27.46h-1l-.5-.57-.16.1.06.47.05.35-.47.84.31 1.27-.72.57-.06 1.12-.74.24v.38l.83.04 1.19-1.34 1.1.07.97-.75.67.02.18-.35-.16-.3-.72.08-.11-.5.72-.68 1.2-.64.95.05-.13-.42 1.5-.62.34-.67.94-.82 3.6-.81.22-.6.55-.14.14-.27.03-.42.31-.1-.02-.47-.27-.55.37-1.8h2.47l.6 1.8.53.03.07.56.98.11z" fill="#fff"/>
</svg>
